<svg width="230" height="96" viewBox="0 0 230 96" fill="none" xmlns="http://www.w3.org/2000/svg">
<rect width="230" height="96" rx="7" fill="white"/>
<g clip-path="url(#clip0_378_2065)">
<path d="M81.6768 27H85.9722C89.4786 27.21 93.0168 27.63 96.3386 28.8391C96.0141 31.8268 95.7054 34.8177 95.4191 37.8086C91.2572 35.4255 86.2459 34.6555 81.5304 35.4095C78.5172 35.8805 75.4595 36.8477 73.159 38.9286C71.0304 40.825 69.6909 43.5773 69.4904 46.4186C69.0195 50.2432 69.8913 54.4177 72.6595 57.2336C74.7309 59.445 77.6804 60.635 80.6363 61.0709C82.6886 61.3064 84.8236 61.3032 86.7804 60.5586C84.9731 63.3555 83.2136 66.1809 81.4127 68.9841C79.1313 68.8123 76.7927 69.2227 74.559 68.5832C70.4386 67.5618 66.3945 65.7418 63.4163 62.6459C60.0659 59.3527 58.3763 54.6786 58.0454 50.0555V46.5205C58.3509 41.6555 60.0531 36.6727 63.69 33.2841C68.4754 28.75 75.2972 27.3405 81.6768 27Z" fill="#003974"/>
<path d="M138.52 28.0468C144.568 28.0309 150.62 28.0404 156.672 28.0404C159.517 28.0373 162.473 28.2154 165.094 29.415C170.815 32.1609 173.205 39.9023 170.36 45.5023C169.247 48.0986 166.933 49.925 164.404 51.0482C165.136 52.4736 165.753 53.9532 166.326 55.4486C168.228 59.9604 170.144 64.4659 171.996 69H161.295C159.208 63.6291 157.165 58.2423 155.027 52.8904C152.733 52.8904 150.439 52.9032 148.148 52.8841C148.151 58.255 148.142 63.6291 148.154 69H147.989C144.938 63.5813 141.587 58.3377 138.52 52.9318C138.501 44.6368 138.507 36.3418 138.52 28.0468ZM148.148 36.1573C148.148 38.9541 148.148 41.7509 148.148 44.5509C151.976 44.5763 155.804 44.5191 159.628 44.5795C161.209 43.2718 161.964 40.9077 161.34 38.9382C160.894 37.8404 160.306 36.6886 159.195 36.135C155.514 36.1827 151.829 36.1445 148.148 36.1573Z" fill="#003974"/>
<path d="M83.7131 44.6909C88.1009 44.5859 92.4918 44.6686 96.8827 44.6495C95.3077 47.2332 93.6245 49.75 92.04 52.3273C89.2654 52.2955 86.4845 52.3909 83.7131 52.2764C83.7545 49.75 83.7545 47.2205 83.7131 44.6909Z" fill="#003974"/>
<path d="M96.8826 44.6495C100.287 39.2977 103.739 33.9777 107.08 28.5845C109.769 33.0168 112.429 37.465 115.038 41.9418C115.143 42.1264 115.356 42.4923 115.461 42.6768C113.52 45.8523 111.509 48.9832 109.575 52.165C108.764 50.9623 108.099 49.6704 107.373 48.4168C102.852 55.3023 98.2381 62.1273 93.7008 69H81.6862L81.4126 68.9841C83.2135 66.1809 84.9731 63.3554 86.7803 60.5586C88.5208 57.8064 90.2485 55.0445 92.0399 52.3273C93.6244 49.75 95.3076 47.2332 96.8826 44.6495Z" fill="#ED1C24"/>
<path d="M120.361 54.9809C120.769 54.3382 121.141 53.6414 121.78 53.1927C124.93 58.4587 128.099 63.7087 131.202 69H119.124L119.454 68.9237C118.207 66.935 116.995 64.9146 115.888 62.8464C115.843 62.7159 115.754 62.455 115.709 62.3277C117.202 59.8427 118.847 57.4532 120.361 54.9809Z" fill="#ED1C24"/>
<path d="M124.036 28.8614C124.736 29.6696 125.207 30.6368 125.742 31.5564C130.028 38.6646 134.228 45.8268 138.52 52.9318C141.587 58.3378 144.938 63.5814 147.989 69H136.296C132.761 63.0023 129.254 56.9855 125.71 50.9909C125.293 50.2082 124.854 49.4318 124.313 48.7255C123.728 49.7246 123.136 50.7205 122.468 51.6655C122.169 52.1364 121.726 52.5914 121.78 53.1928C121.141 53.6414 120.769 54.3382 120.361 54.9809C118.847 57.4532 117.202 59.8428 115.709 62.3278C115.754 62.455 115.843 62.7159 115.888 62.8464C115.773 62.8018 115.544 62.7096 115.429 62.6618C114.09 64.7778 112.725 66.8714 111.411 69H99.0781C102.575 63.3873 106.072 57.7746 109.575 52.165C111.509 48.9832 113.52 45.8523 115.461 42.6768C115.356 42.4923 115.143 42.1264 115.038 41.9418C115.194 42.0755 115.509 42.3459 115.665 42.4796C118.366 37.8882 121.364 33.4687 124.036 28.8614Z" fill="#FAAB53"/>
</g>
<defs>
<clipPath id="clip0_378_2065">
<rect width="113.909" height="42" fill="white" transform="translate(58.0454 27)"/>
</clipPath>
</defs>
</svg>
