<svg width="230" height="96" viewBox="0 0 230 96" fill="none" xmlns="http://www.w3.org/2000/svg">
<rect width="230" height="96" rx="7" fill="white"/>
<g clip-path="url(#clip0_378_1999)">
<mask id="mask0_378_1999" style="mask-type:luminance" maskUnits="userSpaceOnUse" x="31" y="20" width="167" height="56">
<path d="M197.68 20H31.9414V76H197.68V20Z" fill="white"/>
</mask>
<g mask="url(#mask0_378_1999)">
<path d="M44.9944 49.2348C41.6106 49.2348 38.8677 51.9778 38.8677 55.3615C38.8677 58.7453 41.6106 61.4882 44.9944 61.4882C48.3782 61.4882 51.1211 58.7453 51.1211 55.3615C51.1211 51.9778 48.3782 49.2348 44.9944 49.2348ZM44.9944 56.2628C44.4969 56.2628 44.0931 55.859 44.0931 55.3615C44.0931 54.864 44.4969 54.4602 44.9944 54.4602C45.4919 54.4602 45.8957 54.864 45.8957 55.3615C45.8957 55.859 45.4919 56.2628 44.9944 56.2628Z" fill="#42145F"/>
<path d="M40.561 35.4235C35.7993 35.4235 31.9414 39.2839 31.9414 44.043C31.9414 48.8022 35.7993 52.6627 40.561 52.6627C45.3227 52.6627 49.1806 48.8022 49.1806 44.043C49.1806 39.2839 45.3227 35.4235 40.561 35.4235ZM40.561 47.7212C38.5292 47.7212 36.8829 46.0749 36.8829 44.043C36.8829 42.0112 38.5292 40.365 40.561 40.365C42.5928 40.365 44.2391 42.0112 44.2391 44.043C44.2391 46.0749 42.5928 47.7212 40.561 47.7212Z" fill="#0B375A"/>
<path d="M44.9945 49.2347C42.6059 49.2347 40.5376 50.6023 39.5269 52.5976C39.8655 52.6393 40.2093 52.6601 40.561 52.6601C43.1946 52.6601 45.5494 51.4775 47.1306 49.615C46.4663 49.3676 45.7474 49.2321 44.9945 49.2321" fill="#175E54"/>
<path d="M53.5907 20C46.9925 20 41.6421 25.3504 41.6421 31.946C41.6421 38.5416 46.9925 43.8947 53.5907 43.8947C60.1889 43.8947 65.5368 38.5442 65.5368 31.946C65.5368 25.3479 60.1889 20 53.5907 20ZM53.5907 39.9535C49.1702 39.9535 45.5859 36.3691 45.5859 31.9487C45.5859 27.5281 49.1702 23.9438 53.5907 23.9438C58.0112 23.9438 61.5955 27.5281 61.5955 31.9487C61.5955 36.3691 58.0112 39.9535 53.5907 39.9535Z" fill="#69BE28"/>
<path d="M42.21 35.585C43.2909 38.974 45.8437 41.7013 49.1181 43.0246C48.6779 39.2918 45.8542 36.291 42.21 35.585Z" fill="#007A87"/>
<path d="M151.925 44.7595H154.009V58.6618H162.298V60.4148H151.928V44.7595H151.925Z" fill="#42145F"/>
<path d="M174.575 60.3785C174.247 60.5765 173.83 60.6859 173.236 60.6859C172.269 60.6859 171.658 60.1597 171.658 58.9302C170.626 60.1363 169.245 60.6859 167.664 60.6859C165.601 60.6859 163.913 59.7637 163.913 57.5053C163.913 54.9395 165.822 54.3899 167.753 54.0173C169.816 53.6214 171.569 53.7543 171.569 52.3502C171.569 50.7274 170.23 50.4643 169.047 50.4643C167.469 50.4643 166.304 50.9462 166.218 52.6133H164.353C164.463 49.8052 166.635 48.818 169.157 48.818C171.196 48.818 173.413 49.279 173.413 51.9334V57.7684C173.413 58.6462 173.413 59.0396 174.004 59.0396C174.158 59.0396 174.333 59.0187 174.575 58.9302V60.3785ZM171.548 54.5644C170.824 55.0906 169.42 55.114 168.17 55.3328C166.94 55.5516 165.888 55.9919 165.888 57.3724C165.888 58.6019 166.94 59.0396 168.081 59.0396C170.537 59.0396 171.548 57.5053 171.548 56.4738V54.5644Z" fill="#42145F"/>
<path d="M176.25 44.7569H178.115V50.6283H178.159C178.774 49.378 180.222 48.8283 181.78 48.831C185.268 48.831 187 51.5947 187 54.7988C187 58.0002 185.289 60.6988 181.822 60.6988C180.66 60.6988 178.993 60.2612 178.159 58.9223H178.115V60.4149H176.25V44.7595V44.7569ZM181.514 50.4746C179.014 50.4746 178.047 52.6237 178.047 54.7519C178.047 56.9895 179.055 59.0526 181.624 59.0526C184.169 59.0526 185.023 56.8801 185.023 54.6659C185.023 52.5377 183.926 50.4746 181.514 50.4746Z" fill="#42145F"/>
<path d="M189.915 56.8463C189.981 58.5134 191.429 59.0396 192.966 59.0396C194.127 59.0396 195.709 58.7765 195.709 57.3516C195.709 55.9033 193.867 55.6636 192.002 55.2468C190.16 54.8301 188.295 54.2153 188.295 52.0428C188.295 49.761 190.553 48.818 192.528 48.818C195.029 48.818 197.024 49.6073 197.178 52.3711H195.313C195.18 50.9227 193.909 50.4617 192.679 50.4617C191.562 50.4617 190.267 50.7691 190.267 51.91C190.267 53.2489 192.241 53.4677 193.974 53.8845C195.839 54.3013 197.68 54.9161 197.68 57.1094C197.68 59.808 195.157 60.6859 192.854 60.6859C190.309 60.6859 188.159 59.6543 188.05 56.8463H189.915Z" fill="#42145F"/>
<path d="M62.2026 44.7595H65.6437V57.5208H73.276V60.4175H62.2026V44.7595Z" fill="#42145F"/>
<path d="M79.9679 44.7595H83.4978L89.3533 60.4175H85.782L84.5971 56.9295H78.7437L77.5142 60.4175H74.0288L79.9731 44.7595H79.9679ZM79.6371 54.3637H83.6954L81.7237 48.6199H81.6794L79.6399 54.3637H79.6371Z" fill="#42145F"/>
<path d="M102.878 54.494C102.878 58.7269 100.377 60.7874 96.1913 60.7874C92.0049 60.7874 89.5249 58.7478 89.5249 54.494V44.7569H92.9687V54.494C92.9687 56.2028 93.4063 57.8934 96.1913 57.8934C98.6473 57.8934 99.4369 56.8176 99.4369 54.494V44.7569H102.878V54.494Z" fill="#42145F"/>
<path d="M104.547 44.7595H112.99C115.793 44.7595 117.572 46.7105 117.572 49.0784C117.572 50.9201 116.825 52.3033 115.095 53.004V53.0483C116.783 53.4859 117.265 55.1296 117.374 56.7107C117.439 57.698 117.418 59.5371 118.033 60.4175H114.592C114.175 59.4303 114.219 57.9168 114.045 56.6665C113.802 55.0228 113.164 54.296 111.435 54.296H107.991V60.4149H104.55V44.7569L104.547 44.7595ZM107.988 51.8422H111.761C113.295 51.8422 114.131 51.1832 114.131 49.6072C114.131 48.0312 113.297 47.4373 111.761 47.4373H107.988V51.8448V51.8422Z" fill="#42145F"/>
<path d="M132.743 54.494C132.743 58.7269 130.242 60.7874 126.056 60.7874C121.87 60.7874 119.39 58.7478 119.39 54.494V44.7569H122.831V54.494C122.831 56.2028 123.269 57.8934 126.056 57.8934C128.512 57.8934 129.302 56.8176 129.302 54.494V44.7569H132.745V54.494H132.743Z" fill="#42145F"/>
<path d="M137.082 55.2181C137.082 57.302 138.703 58.1122 140.547 58.1122C141.753 58.1122 143.597 57.7605 143.597 56.1611C143.597 54.4732 141.253 54.1892 138.948 53.5745C136.624 52.9597 134.277 52.061 134.277 49.1227C134.277 45.9213 137.304 44.3844 140.133 44.3844C143.4 44.3844 146.405 45.8093 146.405 49.4275H143.074C142.964 47.5441 141.625 47.0622 139.982 47.0622C138.885 47.0622 137.611 47.5233 137.611 48.8362C137.611 50.0422 138.359 50.1959 142.284 51.204C143.425 51.4906 146.932 52.2121 146.932 55.7652C146.932 58.6384 144.673 60.7874 140.419 60.7874C136.958 60.7874 133.712 59.0786 133.756 55.2181H137.088H137.082Z" fill="#42145F"/>
<path d="M66.2245 68.3129C66.4928 68.4066 66.7324 68.5346 66.946 68.696C67.1596 68.8602 67.3367 69.0475 67.4722 69.256C67.6103 69.4668 67.6989 69.696 67.7379 69.9435C67.7483 70.0061 67.7483 70.048 67.7379 70.0659C67.7275 70.0871 67.7015 70.0998 67.6624 70.1049L66.8783 70.1572C66.8445 70.1624 66.821 70.1572 66.8106 70.1388C66.8002 70.1209 66.7897 70.0974 66.7767 70.0635C66.7038 69.7247 66.5475 69.4513 66.313 69.2353C66.076 69.0217 65.7764 68.9148 65.4092 68.9148C64.8751 68.9148 64.461 69.1181 64.1718 69.5219C63.8827 69.9257 63.7368 70.5454 63.7368 71.3788C63.7368 72.2127 63.8775 72.8141 64.1614 73.2207C64.4454 73.6245 64.8726 73.8278 65.4404 73.8278C65.8155 73.8278 66.1333 73.7365 66.3886 73.5539C66.6465 73.3718 66.8549 73.072 67.019 72.6555C67.0372 72.6165 67.0789 72.6033 67.1466 72.6137L67.7457 72.7572C67.764 72.7624 67.7796 72.7751 67.7952 72.7906C67.8135 72.8066 67.8161 72.8428 67.8031 72.9002C67.764 73.0461 67.6989 73.2 67.6077 73.3562C67.5165 73.5148 67.4045 73.6659 67.269 73.8169C67.1336 73.9657 66.9721 74.0984 66.7871 74.2184C66.6022 74.3355 66.3912 74.432 66.1593 74.4998C65.9275 74.5675 65.6722 74.6038 65.3961 74.6038C64.8283 74.6038 64.3385 74.4711 63.9322 74.208C63.5232 73.9421 63.2106 73.5699 62.9918 73.0852C62.773 72.6005 62.6636 72.0301 62.6636 71.3713C62.6636 70.712 62.773 70.1365 62.9918 69.657C63.2106 69.1802 63.5232 68.8132 63.9296 68.5553C64.336 68.2998 64.8178 68.1722 65.3727 68.1722C65.6722 68.1722 65.9536 68.2193 66.2219 68.3129H66.2245Z" fill="#42145F"/>
<path d="M69.0088 74.3877V68.3835C69.0088 68.3002 69.0426 68.2555 69.1104 68.2555H69.7772C69.8449 68.2555 69.8788 68.2922 69.8788 68.3651V70.5948C69.8788 70.6235 69.8866 70.6418 69.8997 70.6494C69.9127 70.6574 69.9335 70.6494 69.9622 70.6211C70.1523 70.4673 70.3294 70.3449 70.4884 70.2484C70.6472 70.152 70.8087 70.0818 70.9702 70.0324C71.1318 69.9826 71.3011 69.9595 71.4808 69.9595C71.9132 69.9595 72.2467 70.0767 72.4785 70.311C72.7077 70.5454 72.8249 70.8607 72.8249 71.2616V74.3694C72.8249 74.471 72.7755 74.5204 72.6817 74.5204H72.0565C72.0122 74.5204 71.981 74.5101 71.9601 74.4917C71.9393 74.4734 71.9315 74.4371 71.9315 74.3877V71.4338C71.9315 71.1863 71.8689 70.991 71.7413 70.8503C71.6163 70.7096 71.4157 70.639 71.1448 70.639C70.9937 70.639 70.8504 70.6626 70.7202 70.7096C70.5873 70.759 70.4571 70.8268 70.3269 70.9204C70.1966 71.0141 70.0559 71.1289 69.9049 71.272V74.3797C69.9049 74.4762 69.8527 74.5233 69.7434 74.5233H69.1442C69.0531 74.5233 69.0088 74.479 69.0088 74.3877Z" fill="#42145F"/>
<path d="M75.0498 73.2856C75.1722 73.4913 75.3337 73.6527 75.5395 73.7755C75.7453 73.8979 75.9745 73.9576 76.2272 73.9576C76.4799 73.9576 76.7169 73.9031 76.9201 73.7962C77.1233 73.6894 77.3082 73.5228 77.4775 73.2988C77.4932 73.2753 77.5114 73.2649 77.5271 73.2598C77.5427 73.2546 77.5687 73.2621 77.6026 73.2805L78.0324 73.4838C78.0949 73.5125 78.1001 73.5567 78.0506 73.6188C77.8943 73.8508 77.7198 74.0386 77.5322 74.1845C77.3447 74.3303 77.1337 74.4372 76.9019 74.5049C76.6727 74.5722 76.4148 74.6061 76.1334 74.6061C75.7036 74.6061 75.3285 74.5101 75.0003 74.32C74.6747 74.1271 74.4168 73.8612 74.2266 73.5176C74.0391 73.1736 73.9453 72.7802 73.9453 72.3374C73.9453 71.8475 74.0417 71.4259 74.2319 71.0739C74.422 70.7223 74.6825 70.4489 75.0133 70.256C75.3415 70.0635 75.7088 69.9642 76.1152 69.9642C76.5215 69.9642 76.8967 70.0555 77.2093 70.2405C77.5218 70.4231 77.7641 70.6861 77.9412 71.0296C78.1158 71.3736 78.2017 71.7906 78.2017 72.28C78.2017 72.3322 78.1965 72.3741 78.1835 72.4103C78.1731 72.4471 78.134 72.4649 78.0741 72.4649H74.9508C74.9222 72.4649 74.9013 72.4781 74.8883 72.504C74.8752 72.5303 74.8674 72.5614 74.8674 72.6005C74.8674 72.8532 74.9273 73.0823 75.0498 73.288V73.2856ZM77.1728 71.9313C77.2353 71.9313 77.2743 71.9233 77.29 71.9049C77.3082 71.8894 77.3135 71.8583 77.3135 71.8113C77.3135 71.5976 77.2665 71.3943 77.1754 71.2042C77.0816 71.0118 76.9487 70.8579 76.7794 70.7407C76.6075 70.6235 76.3965 70.5633 76.1412 70.5633C75.886 70.5633 75.6489 70.6259 75.4614 70.7539C75.2738 70.8786 75.1279 71.048 75.0289 71.2565C74.93 71.4649 74.8831 71.6861 74.8831 71.9233L77.1702 71.9313H77.1728Z" fill="#42145F"/>
<path d="M79.3164 74.3873V70.1755C79.3164 70.0922 79.3531 70.0475 79.4261 70.0475H80.0849C80.1526 70.0475 80.1865 70.0842 80.1865 70.1571V70.6207C80.1865 70.6494 80.1945 70.6677 80.2101 70.6753C80.2284 70.6833 80.2463 70.6753 80.2698 70.6442C80.4444 70.5035 80.6086 70.3811 80.7597 70.2771C80.9131 70.1727 81.067 70.0945 81.2284 70.04C81.3898 69.9854 81.5621 69.959 81.747 69.959C82.0675 69.959 82.3305 70.0348 82.5334 70.183C82.7366 70.3317 82.875 70.5115 82.9479 70.72C82.9583 70.7407 82.9738 70.751 82.9945 70.743C83.0157 70.7355 83.0364 70.7251 83.0571 70.7016C83.2213 70.5505 83.3828 70.4174 83.547 70.3082C83.7108 70.199 83.8778 70.1129 84.0444 70.0503C84.211 69.9877 84.3908 69.9567 84.5757 69.9567C84.9795 69.9567 85.2976 70.0738 85.5268 70.311C85.7531 70.5477 85.8679 70.8658 85.8679 71.264V74.3614C85.8679 74.463 85.8185 74.5124 85.7169 74.5124H85.0915C85.0524 74.5124 85.0213 74.5021 85.003 74.4837C84.9846 74.463 84.9743 74.4291 84.9743 74.3797V71.4258C84.9743 71.1783 84.9117 70.983 84.7893 70.8423C84.667 70.7016 84.4792 70.631 84.2322 70.631C84.0863 70.631 83.9456 70.6597 83.8101 70.7148C83.6745 70.7694 83.5522 70.8395 83.4425 70.9204C83.3333 71.0009 83.2369 71.0818 83.1508 71.16C83.1117 71.199 83.083 71.2357 83.0675 71.2696C83.0491 71.3035 83.0416 71.3501 83.0416 71.4047V74.359C83.0416 74.4602 82.9893 74.5101 82.8905 74.5101H82.2731C82.2341 74.5101 82.2025 74.4993 82.1795 74.4814C82.1583 74.4602 82.1456 74.4263 82.1456 74.3769V71.423C82.1456 71.1755 82.0853 70.9802 81.9682 70.8395C81.851 70.6988 81.6609 70.6287 81.403 70.6287C81.1894 70.6287 80.9941 70.6809 80.8171 70.7849C80.6397 70.8889 80.4392 71.048 80.2124 71.2616V74.3694C80.2124 74.4654 80.1606 74.5124 80.051 74.5124H79.4519C79.3606 74.5124 79.3164 74.4682 79.3164 74.3769V74.3873Z" fill="#42145F"/>
<path d="M88.1398 69.1515C88.1398 69.2691 88.0847 69.3289 87.9704 69.3289H87.3449C87.2828 69.3289 87.2437 69.3157 87.2226 69.287C87.2018 69.2583 87.1938 69.2192 87.1938 69.1698V68.4014C87.1938 68.3049 87.2357 68.2583 87.319 68.2583H88.0198C88.1007 68.2583 88.137 68.3025 88.137 68.3938V69.1543L88.1398 69.1515ZM88.1135 74.3614C88.1135 74.4239 88.1007 74.4658 88.0744 74.4894C88.0513 74.5101 88.0066 74.5228 87.9445 74.5228H87.3713C87.3087 74.5228 87.2668 74.5124 87.2489 74.4945C87.2277 74.4734 87.2174 74.4395 87.2174 74.3901V70.1778C87.2174 70.0945 87.2564 70.0503 87.3346 70.0503H88.0094C88.0772 70.0503 88.1111 70.0894 88.1111 70.1675V74.3642L88.1135 74.3614Z" fill="#42145F"/>
<path d="M91.7861 70.7069C91.5937 70.6052 91.3669 70.5558 91.1038 70.5558C90.8407 70.5558 90.5984 70.6104 90.4163 70.7252C90.2337 70.8372 90.1424 70.9958 90.1424 71.1968C90.1424 71.2928 90.1814 71.3892 90.26 71.4829C90.3381 71.577 90.5071 71.6626 90.7678 71.7356L91.8073 72.0325C92.2186 72.1393 92.5132 72.3012 92.693 72.5144C92.8727 72.7281 92.9636 72.9732 92.9636 73.249C92.9636 73.5252 92.8831 73.7728 92.724 73.9709C92.5626 74.1713 92.341 74.3252 92.0572 74.4396C91.7734 74.5516 91.4478 74.609 91.0803 74.609C90.6191 74.609 90.2181 74.5205 89.877 74.3431C89.5358 74.1662 89.2958 73.9445 89.1556 73.6815C89.1447 73.6476 89.1372 73.6189 89.1372 73.593C89.1372 73.5671 89.1476 73.5459 89.1711 73.5304L89.5852 73.3116C89.6243 73.2881 89.6553 73.2805 89.6817 73.2829C89.7076 73.2857 89.7259 73.2989 89.7363 73.3219C89.8276 73.4499 89.9316 73.5671 90.0487 73.6688C90.1659 73.7704 90.3094 73.8509 90.4784 73.9083C90.6478 73.9681 90.8511 73.9968 91.0854 73.9968C91.2836 73.9968 91.4605 73.9709 91.6224 73.9163C91.7838 73.8612 91.9085 73.7883 91.9974 73.6918C92.0859 73.5958 92.1325 73.4838 92.1325 73.3535C92.1325 73.2231 92.0779 73.1031 91.9687 73.0043C91.8591 72.9055 91.6666 72.8193 91.3904 72.7464L90.5283 72.5276C90.101 72.4156 89.7937 72.2593 89.6087 72.0641C89.4238 71.8659 89.3297 71.6316 89.3297 71.3553C89.3297 71.0791 89.4026 70.8396 89.5485 70.6339C89.6944 70.4283 89.9029 70.2664 90.1687 70.1492C90.4341 70.0321 90.7494 69.9723 91.109 69.9723C91.5024 69.9723 91.8487 70.0476 92.1485 70.1963C92.4478 70.3445 92.6718 70.5351 92.8229 70.7666C92.8389 70.7902 92.8516 70.8137 92.8567 70.8396C92.8619 70.8659 92.8492 70.889 92.8153 70.9125L92.3749 71.1393C92.3513 71.1497 92.3283 71.1521 92.3019 71.1469C92.276 71.1417 92.2525 71.1262 92.229 71.1055C92.1221 70.9492 91.9739 70.8189 91.781 70.7172L91.7861 70.7069Z" fill="#42145F"/>
<path d="M95.3913 70.6885C95.3395 70.6885 95.316 70.7172 95.316 70.7718V73.2466C95.316 73.489 95.3603 73.6527 95.4515 73.7417C95.5424 73.8302 95.6807 73.8744 95.8657 73.8744H96.405C96.4388 73.8744 96.4647 73.8847 96.4803 73.9031C96.4958 73.9238 96.5038 73.9473 96.5038 73.9732V74.3356C96.5038 74.4085 96.4619 74.4579 96.3786 74.4786C96.3057 74.489 96.2144 74.4993 96.108 74.5022C96.0012 74.5073 95.8944 74.5125 95.7899 74.5153C95.6859 74.5177 95.5946 74.5177 95.5137 74.5177C95.1494 74.5177 94.8732 74.432 94.6906 74.2598C94.5085 74.088 94.4172 73.8222 94.4172 73.4626V70.7878C94.4172 70.72 94.3885 70.6862 94.3339 70.6862H93.701C93.628 70.6862 93.5913 70.6523 93.5913 70.5845V70.1365C93.5913 70.0739 93.6252 70.0424 93.693 70.0424H94.3678C94.412 70.0424 94.4355 70.0165 94.4355 69.9671L94.5372 68.641C94.5424 68.5629 94.5762 68.5238 94.6388 68.5238H95.2224C95.2948 68.5238 95.3315 68.568 95.3315 68.6593V69.9671C95.3315 70.0165 95.3574 70.0424 95.4073 70.0424H96.4205C96.4883 70.0424 96.5221 70.0739 96.5221 70.1365V70.5845C96.5221 70.6523 96.4831 70.6862 96.405 70.6862H95.3913V70.6885Z" fill="#42145F"/>
<path d="M97.6291 74.489C97.6056 74.4659 97.5952 74.432 97.5952 74.3878V70.1756C97.5952 70.0923 97.6319 70.048 97.7049 70.048H98.3562C98.4234 70.048 98.4573 70.0843 98.4573 70.1572V70.6885C98.4573 70.7224 98.4682 70.7407 98.486 70.7487C98.5044 70.7563 98.5279 70.7436 98.5486 70.7149C98.6893 70.5454 98.83 70.4071 98.9759 70.2951C99.119 70.1859 99.2649 70.1026 99.4107 70.0452C99.5566 69.9906 99.7025 69.9619 99.8512 69.9619C100.049 69.9619 100.148 70.001 100.148 70.0791V70.7379C100.148 70.8057 100.117 70.8344 100.055 70.8217C99.9867 70.8057 99.9138 70.793 99.838 70.7878C99.7627 70.7826 99.6846 70.7798 99.606 70.7798C99.4889 70.7798 99.3642 70.8057 99.2338 70.8556C99.1034 70.9073 98.9839 70.9751 98.8743 71.0612C98.7651 71.1473 98.671 71.2461 98.598 71.353C98.5251 71.4598 98.4889 71.569 98.4889 71.681V74.3746C98.4889 74.4711 98.4366 74.5177 98.3275 74.5177H97.7279C97.6837 74.5177 97.6498 74.5073 97.6267 74.4838L97.6291 74.489Z" fill="#42145F"/>
<path d="M101.078 75.8983C100.992 75.8879 100.948 75.8489 100.948 75.7886V75.359C100.948 75.3251 100.963 75.2964 100.995 75.2757C101.026 75.2522 101.088 75.2418 101.185 75.2418H101.735C101.852 75.2418 101.961 75.2079 102.06 75.1378C102.159 75.0672 102.237 74.9788 102.3 74.8719C102.362 74.7651 102.401 74.6531 102.422 74.5383C102.443 74.4239 102.435 74.3195 102.401 74.231L100.789 70.2117C100.771 70.1726 100.771 70.1364 100.789 70.1025C100.805 70.0686 100.841 70.0503 100.898 70.0503H101.591C101.625 70.0503 101.656 70.0606 101.685 70.079C101.714 70.0997 101.729 70.1256 101.735 70.1595L102.899 73.1995C102.917 73.2489 102.938 73.2752 102.967 73.2752C102.995 73.2752 103.021 73.2414 103.042 73.1736L104.191 70.1519C104.201 70.1232 104.22 70.0997 104.24 70.079C104.264 70.0606 104.29 70.0503 104.324 70.0503H104.821C104.865 70.0503 104.897 70.0658 104.918 70.0974C104.938 70.1284 104.936 70.1595 104.915 70.1934L103.099 74.7938C103.008 75.0258 102.912 75.2131 102.802 75.359C102.696 75.5049 102.578 75.6197 102.448 75.7002C102.318 75.7811 102.175 75.8385 102.013 75.8696C101.852 75.9006 101.67 75.9166 101.461 75.9166C101.292 75.9166 101.164 75.9115 101.078 75.8983Z" fill="#42145F"/>
<path d="M110.693 70.0767C110.711 70.0974 110.721 70.1233 110.721 70.1572V70.5977C110.721 70.6603 110.685 70.6913 110.612 70.6913H109.734C109.682 70.6913 109.659 70.7172 109.659 70.7671V74.3901C109.659 74.4814 109.622 74.5257 109.549 74.5257H108.864C108.796 74.5257 108.762 74.4866 108.762 74.4085V70.7619C108.762 70.7172 108.742 70.6941 108.702 70.6941H107.942C107.874 70.6941 107.84 70.6626 107.84 70.6V70.16C107.84 70.1261 107.848 70.1003 107.866 70.0791C107.882 70.0607 107.91 70.0504 107.95 70.0504H108.677C108.731 70.0504 108.76 70.0165 108.76 69.9487V69.368C108.76 69.0137 108.854 68.7403 109.038 68.5501C109.223 68.3572 109.502 68.2635 109.875 68.2635H110.628C110.711 68.2635 110.752 68.3054 110.752 68.3911L110.76 68.7873C110.76 68.816 110.752 68.8391 110.737 68.8603C110.719 68.881 110.693 68.889 110.651 68.889H110.112C109.948 68.889 109.828 68.9407 109.752 69.0452C109.677 69.1492 109.638 69.2899 109.638 69.4645V69.9803C109.638 70.0297 109.666 70.0555 109.721 70.0555H110.599C110.638 70.0555 110.669 70.0664 110.687 70.0843L110.693 70.0767Z" fill="#42145F"/>
<path d="M112.482 74.3148C112.154 74.1195 111.902 73.8508 111.722 73.5044C111.542 73.1581 111.451 72.7595 111.451 72.3091C111.451 71.8583 111.544 71.431 111.729 71.0795C111.914 70.7279 112.172 70.4541 112.503 70.2564C112.831 70.0583 113.206 69.9595 113.631 69.9595C114.055 69.9595 114.452 70.0606 114.774 70.2588C115.098 70.4592 115.35 70.7355 115.53 71.087C115.71 71.439 115.801 71.8428 115.801 72.2983C115.801 72.7543 115.71 73.1477 115.525 73.4941C115.342 73.8404 115.087 74.1115 114.762 74.3096C114.436 74.5049 114.055 74.6037 113.623 74.6037C113.191 74.6037 112.811 74.5072 112.485 74.3119L112.482 74.3148ZM114.313 73.7703C114.498 73.6348 114.642 73.4418 114.741 73.1919C114.84 72.9421 114.889 72.6371 114.889 72.2828C114.889 71.9284 114.84 71.6239 114.741 71.3712C114.642 71.1185 114.498 70.9232 114.311 70.7849C114.123 70.647 113.897 70.5792 113.631 70.5792C113.366 70.5792 113.139 70.6494 112.951 70.7849C112.764 70.9232 112.618 71.1185 112.516 71.3712C112.414 71.6263 112.365 71.9284 112.365 72.2828C112.365 72.6371 112.414 72.9392 112.516 73.1919C112.618 73.4418 112.764 73.6348 112.951 73.7703C113.139 73.9058 113.371 73.9736 113.639 73.9736C113.907 73.9736 114.128 73.9058 114.313 73.7703Z" fill="#42145F"/>
<path d="M116.999 74.489C116.976 74.4659 116.965 74.432 116.965 74.3878V70.1756C116.965 70.0923 117.002 70.048 117.074 70.048H117.726C117.794 70.048 117.827 70.0843 117.827 70.1572V70.6885C117.827 70.7224 117.838 70.7407 117.856 70.7487C117.874 70.7563 117.898 70.7436 117.918 70.7149C118.059 70.5454 118.2 70.4071 118.346 70.2951C118.489 70.1859 118.635 70.1026 118.781 70.0452C118.927 69.9906 119.073 69.9619 119.221 69.9619C119.419 69.9619 119.518 70.001 119.518 70.0791V70.7379C119.518 70.8057 119.487 70.8344 119.424 70.8217C119.356 70.8057 119.283 70.793 119.208 70.7878C119.132 70.7826 119.054 70.7798 118.976 70.7798C118.859 70.7798 118.734 70.8057 118.603 70.8556C118.473 70.9073 118.354 70.9751 118.244 71.0612C118.135 71.1473 118.041 71.2461 117.968 71.353C117.895 71.4598 117.858 71.569 117.858 71.681V74.3746C117.858 74.4711 117.806 74.5177 117.697 74.5177H117.098C117.054 74.5177 117.02 74.5073 116.996 74.4838L116.999 74.489Z" fill="#42145F"/>
<path d="M122.425 74.4894C122.404 74.4658 122.391 74.4371 122.391 74.4061V68.4014C122.391 68.3571 122.404 68.3209 122.43 68.2946C122.456 68.2687 122.487 68.2555 122.527 68.2555H124.579C125.355 68.2555 125.952 68.3938 126.369 68.6701C126.785 68.9458 126.994 69.3496 126.994 69.8866C126.994 70.2174 126.908 70.496 126.733 70.7223C126.559 70.9468 126.277 71.1341 125.889 71.28C125.866 71.2851 125.856 71.2983 125.856 71.319C125.856 71.3397 125.866 71.3529 125.889 71.3581C126.306 71.4701 126.619 71.6475 126.83 71.8842C127.041 72.1242 127.147 72.4418 127.147 72.8428C127.147 73.4108 126.934 73.8329 126.509 74.1087C126.085 74.3849 125.467 74.5233 124.655 74.5233H122.519C122.48 74.5233 122.448 74.5124 122.425 74.4894ZM124.697 70.9858C124.853 70.9858 125.006 70.9698 125.157 70.9388C125.308 70.9073 125.444 70.8555 125.566 70.7774C125.691 70.7016 125.79 70.6 125.863 70.4724C125.936 70.3449 125.973 70.191 125.973 70.0037C125.973 69.6597 125.848 69.4018 125.598 69.2301C125.347 69.0578 125.014 68.9722 124.597 68.9722H123.542C123.459 68.9722 123.415 69.0084 123.415 69.0814V70.863C123.415 70.9411 123.446 70.9802 123.508 70.9802H124.699L124.697 70.9858ZM124.613 73.8042C125.108 73.8042 125.478 73.7181 125.72 73.5463C125.962 73.3746 126.082 73.119 126.082 72.783C126.082 72.5355 126.022 72.3322 125.9 72.1788C125.777 72.0249 125.613 71.9106 125.405 71.8376C125.196 71.7647 124.96 71.728 124.697 71.728H123.547C123.457 71.728 123.412 71.7647 123.412 71.8376V73.679C123.412 73.7623 123.443 73.8042 123.506 73.8042H124.613Z" fill="#42145F"/>
<path d="M129.568 73.2856C129.69 73.4913 129.852 73.6527 130.057 73.7755C130.263 73.8979 130.493 73.9576 130.745 73.9576C130.998 73.9576 131.235 73.9031 131.438 73.7962C131.641 73.6894 131.826 73.5228 131.996 73.2988C132.011 73.2753 132.03 73.2649 132.045 73.2598C132.061 73.2546 132.086 73.2621 132.12 73.2805L132.55 73.4838C132.613 73.5125 132.618 73.5567 132.568 73.6188C132.412 73.8508 132.238 74.0386 132.05 74.1845C131.862 74.3303 131.652 74.4372 131.42 74.5049C131.19 74.5722 130.933 74.6061 130.651 74.6061C130.221 74.6061 129.846 74.5101 129.518 74.32C129.193 74.1271 128.935 73.8612 128.744 73.5176C128.557 73.1736 128.463 72.7802 128.463 72.3374C128.463 71.8475 128.559 71.4259 128.75 71.0739C128.94 70.7223 129.2 70.4489 129.531 70.256C129.86 70.0635 130.227 69.9642 130.633 69.9642C131.039 69.9642 131.414 70.0555 131.727 70.2405C132.04 70.4231 132.282 70.6861 132.459 71.0296C132.634 71.3736 132.719 71.7906 132.719 72.28C132.719 72.3322 132.714 72.3741 132.702 72.4103C132.691 72.4471 132.652 72.4649 132.592 72.4649H129.469C129.44 72.4649 129.419 72.4781 129.406 72.504C129.393 72.5303 129.385 72.5614 129.385 72.6005C129.385 72.8532 129.445 73.0823 129.568 73.288V73.2856ZM131.691 71.9313C131.753 71.9313 131.792 71.9233 131.808 71.9049C131.826 71.8894 131.831 71.8583 131.831 71.8113C131.831 71.5976 131.784 71.3943 131.694 71.2042C131.599 71.0118 131.467 70.8579 131.297 70.7407C131.125 70.6235 130.914 70.5633 130.659 70.5633C130.404 70.5633 130.167 70.6259 129.979 70.7539C129.792 70.8786 129.646 71.048 129.547 71.2565C129.448 71.4649 129.401 71.6861 129.401 71.9233L131.688 71.9313H131.691Z" fill="#42145F"/>
<path d="M135.111 70.6885C135.059 70.6885 135.035 70.7172 135.035 70.7718V73.2466C135.035 73.489 135.08 73.6527 135.171 73.7417C135.262 73.8302 135.4 73.8744 135.585 73.8744H136.124C136.158 73.8744 136.184 73.8847 136.2 73.9031C136.216 73.9238 136.224 73.9473 136.224 73.9732V74.3356C136.224 74.4085 136.182 74.4579 136.098 74.4786C136.025 74.489 135.934 74.4993 135.827 74.5022C135.72 74.5073 135.614 74.5125 135.51 74.5153C135.405 74.5177 135.314 74.5177 135.233 74.5177C134.869 74.5177 134.592 74.432 134.41 74.2598C134.228 74.088 134.137 73.8222 134.137 73.4626V70.7878C134.137 70.72 134.108 70.6862 134.054 70.6862H133.421C133.348 70.6862 133.311 70.6523 133.311 70.5845V70.1365C133.311 70.0739 133.345 70.0424 133.413 70.0424H134.088C134.132 70.0424 134.155 70.0165 134.155 69.9671L134.256 68.641C134.262 68.5629 134.296 68.5238 134.358 68.5238H134.942C135.015 68.5238 135.051 68.568 135.051 68.6593V69.9671C135.051 70.0165 135.077 70.0424 135.127 70.0424H136.14C136.208 70.0424 136.241 70.0739 136.241 70.1365V70.5845C136.241 70.6523 136.202 70.6862 136.124 70.6862H135.111V70.6885Z" fill="#42145F"/>
<path d="M138.742 70.6885C138.69 70.6885 138.667 70.7172 138.667 70.7718V73.2466C138.667 73.489 138.711 73.6527 138.802 73.7417C138.893 73.8302 139.031 73.8744 139.216 73.8744H139.756C139.789 73.8744 139.815 73.8847 139.831 73.9031C139.846 73.9238 139.854 73.9473 139.854 73.9732V74.3356C139.854 74.4085 139.812 74.4579 139.729 74.4786C139.656 74.489 139.565 74.4993 139.459 74.5022C139.352 74.5073 139.245 74.5125 139.14 74.5153C139.036 74.5177 138.945 74.5177 138.864 74.5177C138.5 74.5177 138.224 74.432 138.041 74.2598C137.859 74.088 137.768 73.8222 137.768 73.4626V70.7878C137.768 70.72 137.739 70.6862 137.684 70.6862H137.052C136.979 70.6862 136.942 70.6523 136.942 70.5845V70.1365C136.942 70.0739 136.976 70.0424 137.044 70.0424H137.718C137.763 70.0424 137.786 70.0165 137.786 69.9671L137.888 68.641C137.893 68.5629 137.927 68.5238 137.989 68.5238H138.573C138.645 68.5238 138.682 68.568 138.682 68.6593V69.9671C138.682 70.0165 138.708 70.0424 138.758 70.0424H139.771C139.839 70.0424 139.873 70.0739 139.873 70.1365V70.5845C139.873 70.6523 139.834 70.6862 139.756 70.6862H138.742V70.6885Z" fill="#42145F"/>
<path d="M141.719 73.2856C141.842 73.4913 142.003 73.6527 142.209 73.7755C142.415 73.8979 142.644 73.9576 142.897 73.9576C143.149 73.9576 143.387 73.9031 143.59 73.7962C143.793 73.6894 143.978 73.5228 144.147 73.2988C144.163 73.2753 144.181 73.2649 144.196 73.2598C144.212 73.2546 144.238 73.2621 144.272 73.2805L144.702 73.4838C144.764 73.5125 144.77 73.5567 144.72 73.6188C144.564 73.8508 144.389 74.0386 144.202 74.1845C144.014 74.3303 143.803 74.4372 143.571 74.5049C143.342 74.5722 143.084 74.6061 142.803 74.6061C142.373 74.6061 141.998 74.5101 141.67 74.32C141.344 74.1271 141.086 73.8612 140.896 73.5176C140.709 73.1736 140.615 72.7802 140.615 72.3374C140.615 71.8475 140.711 71.4259 140.901 71.0739C141.094 70.7223 141.352 70.4489 141.683 70.256C142.011 70.0635 142.379 69.9642 142.785 69.9642C143.191 69.9642 143.566 70.0555 143.879 70.2405C144.191 70.4231 144.434 70.6861 144.611 71.0296C144.785 71.3736 144.871 71.7906 144.871 72.28C144.871 72.3322 144.866 72.3741 144.853 72.4103C144.843 72.4471 144.803 72.4649 144.744 72.4649H141.62C141.592 72.4649 141.571 72.4781 141.558 72.504C141.545 72.5303 141.537 72.5614 141.537 72.6005C141.537 72.8532 141.597 73.0823 141.719 73.288V73.2856ZM143.843 71.9313C143.905 71.9313 143.944 71.9233 143.96 71.9049C143.978 71.8894 143.983 71.8583 143.983 71.8113C143.983 71.5976 143.936 71.3943 143.845 71.2042C143.751 71.0118 143.619 70.8579 143.449 70.7407C143.277 70.6235 143.066 70.5633 142.811 70.5633C142.555 70.5633 142.318 70.6259 142.131 70.7539C141.943 70.8786 141.797 71.048 141.699 71.2565C141.6 71.4649 141.553 71.6861 141.553 71.9233L143.84 71.9313H143.843Z" fill="#42145F"/>
<path d="M146.158 74.489C146.135 74.4659 146.125 74.432 146.125 74.3878V70.1756C146.125 70.0923 146.161 70.048 146.234 70.048H146.885C146.953 70.048 146.987 70.0843 146.987 70.1572V70.6885C146.987 70.7224 146.997 70.7407 147.015 70.7487C147.034 70.7563 147.057 70.7436 147.078 70.7149C147.219 70.5454 147.359 70.4071 147.505 70.2951C147.648 70.1859 147.794 70.1026 147.94 70.0452C148.086 69.9906 148.232 69.9619 148.38 69.9619C148.578 69.9619 148.677 70.001 148.677 70.0791V70.7379C148.677 70.8057 148.646 70.8344 148.583 70.8217C148.516 70.8057 148.443 70.793 148.367 70.7878C148.292 70.7826 148.213 70.7798 148.135 70.7798C148.018 70.7798 147.893 70.8057 147.763 70.8556C147.633 70.9073 147.513 70.9751 147.404 71.0612C147.294 71.1473 147.2 71.2461 147.127 71.353C147.054 71.4598 147.018 71.569 147.018 71.681V74.3746C147.018 74.4711 146.966 74.5177 146.856 74.5177H146.257C146.213 74.5177 146.179 74.5073 146.156 74.4838L146.158 74.489Z" fill="#42145F"/>
<path d="M152.295 68.2583H153.09C153.163 68.2583 153.199 68.2997 153.199 68.3858V73.6635C153.199 73.7261 153.228 73.7571 153.283 73.7571H156.138C156.216 73.7571 156.255 73.791 156.255 73.8588V74.4164C156.255 74.4498 156.245 74.4762 156.226 74.4969C156.208 74.5176 156.177 74.5256 156.138 74.5256H152.321C152.267 74.5256 152.228 74.5152 152.207 74.4917C152.186 74.4682 152.178 74.4343 152.178 74.3901V68.3858C152.178 68.3025 152.217 68.2583 152.295 68.2583Z" fill="#42145F"/>
<path d="M158.341 69.1515C158.341 69.2691 158.286 69.3289 158.172 69.3289H157.547C157.484 69.3289 157.445 69.3157 157.424 69.287C157.404 69.2583 157.396 69.2192 157.396 69.1698V68.4014C157.396 68.3049 157.437 68.2583 157.521 68.2583H158.221C158.302 68.2583 158.339 68.3025 158.339 68.3938V69.1543L158.341 69.1515ZM158.315 74.3614C158.315 74.4239 158.302 74.4658 158.276 74.4894C158.253 74.5101 158.208 74.5228 158.146 74.5228H157.573C157.51 74.5228 157.468 74.5124 157.451 74.4945C157.429 74.4734 157.419 74.4395 157.419 74.3901V70.1778C157.419 70.0945 157.458 70.0503 157.536 70.0503H158.211C158.279 70.0503 158.313 70.0894 158.313 70.1675V74.3642L158.315 74.3614Z" fill="#42145F"/>
<path d="M163.603 70.0894C163.622 70.1181 163.622 70.152 163.603 70.191L161.897 74.3797C161.863 74.4762 161.791 74.5228 161.678 74.5228H161.282C161.17 74.5228 161.095 74.4786 161.056 74.3877L159.36 70.199C159.35 70.1548 159.352 70.1181 159.373 70.0894C159.394 70.0607 159.425 70.048 159.469 70.048H160.17C160.204 70.048 160.235 70.0583 160.261 70.0762C160.29 70.0974 160.305 70.1233 160.313 70.1572L161.53 73.2127C161.569 73.3195 161.613 73.3167 161.665 73.2047L162.864 70.1492C162.882 70.1209 162.9 70.0974 162.923 70.0762C162.944 70.0583 162.976 70.048 163.017 70.048H163.515C163.559 70.048 163.59 70.0607 163.608 70.0894H163.603Z" fill="#42145F"/>
<path d="M165.552 69.1515C165.552 69.2691 165.497 69.3289 165.383 69.3289H164.757C164.695 69.3289 164.656 69.3157 164.635 69.287C164.614 69.2583 164.606 69.2192 164.606 69.1698V68.4014C164.606 68.3049 164.648 68.2583 164.731 68.2583H165.432C165.513 68.2583 165.549 68.3025 165.549 68.3938V69.1543L165.552 69.1515ZM165.526 74.3614C165.526 74.4239 165.513 74.4658 165.487 74.4894C165.463 74.5101 165.419 74.5228 165.357 74.5228H164.783C164.721 74.5228 164.679 74.5124 164.661 74.4945C164.64 74.4734 164.629 74.4395 164.629 74.3901V70.1778C164.629 70.0945 164.669 70.0503 164.747 70.0503H165.422C165.489 70.0503 165.523 70.0894 165.523 70.1675V74.3642L165.526 74.3614Z" fill="#42145F"/>
<path d="M166.909 74.3877V70.1755C166.909 70.0922 166.945 70.0479 167.018 70.0479H167.685C167.753 70.0479 167.787 70.0842 167.787 70.1571V70.6211C167.787 70.6494 167.795 70.6677 167.807 70.6757C167.821 70.6832 167.841 70.6757 167.87 70.6442C168.045 70.5035 168.211 70.3811 168.367 70.2771C168.524 70.1726 168.686 70.0945 168.849 70.0399C169.014 69.9854 169.191 69.9595 169.381 69.9595C169.808 69.9595 170.142 70.0766 170.379 70.3134C170.615 70.5505 170.733 70.863 170.733 71.2512V74.3665C170.733 74.4682 170.683 74.5181 170.59 74.5181H169.965C169.92 74.5181 169.889 74.5072 169.868 74.4894C169.847 74.471 169.839 74.4343 169.839 74.3849V71.431C169.839 71.1835 169.774 70.9882 169.644 70.8475C169.514 70.7068 169.316 70.6366 169.045 70.6366C168.891 70.6366 168.753 70.6602 168.623 70.7068C168.495 70.7562 168.365 70.8239 168.235 70.9181C168.104 71.0117 167.961 71.1261 167.802 71.2696V74.3774C167.802 74.4734 167.75 74.5204 167.641 74.5204H167.042C166.95 74.5204 166.906 74.4762 166.906 74.3849L166.909 74.3877Z" fill="#42145F"/>
<path d="M176.247 69.9722C176.271 69.9957 176.286 70.0348 176.286 70.0894V70.4696C176.286 70.5322 176.273 70.5764 176.247 70.6051C176.221 70.6338 176.177 70.6442 176.117 70.639C176.026 70.6338 175.947 70.6338 175.88 70.639C175.812 70.6442 175.747 70.6574 175.687 70.6809C175.547 70.7251 175.489 70.7901 175.518 70.8762C175.541 70.9308 175.567 71.0014 175.594 71.0818C175.622 71.1628 175.635 71.2668 175.635 71.3891C175.635 71.6367 175.567 71.8658 175.432 72.0743C175.297 72.2828 175.088 72.447 174.807 72.5717C174.525 72.6969 174.171 72.7567 173.744 72.7567C173.478 72.7567 173.27 72.7727 173.116 72.8037C172.96 72.8353 172.851 72.8767 172.783 72.9289C172.715 72.9835 172.681 73.0381 172.681 73.0931C172.681 73.1764 172.736 73.239 172.845 73.2753C172.955 73.3115 173.134 73.335 173.382 73.3454L174.505 73.4131C175.028 73.4418 175.411 73.5618 175.653 73.7755C175.896 73.9891 176.015 74.2649 176.015 74.6014C176.015 75.023 175.823 75.3618 175.437 75.6146C175.051 75.8673 174.497 75.9948 173.77 75.9948C173.043 75.9948 172.462 75.896 172.077 75.6978C171.691 75.4997 171.499 75.2131 171.499 74.8381C171.499 74.6404 171.569 74.4682 171.709 74.3223C171.85 74.1764 172.043 74.0461 172.291 73.9341C172.358 73.9058 172.358 73.8743 172.291 73.8404C172.168 73.7778 172.067 73.7049 171.988 73.6164C171.91 73.528 171.871 73.424 171.871 73.2988C171.871 73.2075 171.899 73.1214 171.96 73.0409C172.019 72.96 172.1 72.8818 172.207 72.8089C172.314 72.736 172.442 72.6734 172.587 72.624C172.616 72.6136 172.632 72.6004 172.637 72.5826C172.642 72.5642 172.627 72.5458 172.587 72.5223C172.34 72.4 172.152 72.2437 172.027 72.0536C171.899 71.8658 171.837 71.6418 171.837 71.3816C171.837 70.9543 172.009 70.6103 172.348 70.3553C172.686 70.0997 173.179 69.9722 173.822 69.9722C174.122 69.9722 174.377 70.0061 174.585 70.0738C174.796 70.1416 174.971 70.2353 175.114 70.3524C175.148 70.3811 175.182 70.3943 175.216 70.3943C175.25 70.3943 175.281 70.376 175.309 70.3449C175.377 70.2771 175.455 70.2117 175.547 70.1468C175.638 70.0818 175.731 70.0296 175.833 69.9906C175.935 69.9515 176.034 69.9308 176.13 69.9308C176.185 69.9308 176.227 69.9411 176.252 69.9647L176.247 69.9722ZM173.035 74.0673C172.934 74.0621 172.824 74.088 172.707 74.1426C172.59 74.2 172.486 74.2781 172.4 74.3797C172.314 74.4814 172.269 74.5986 172.269 74.7341C172.269 74.8903 172.324 75.0282 172.439 75.143C172.551 75.2574 172.725 75.3463 172.957 75.4084C173.192 75.471 173.491 75.5026 173.856 75.5026C174.296 75.5026 174.629 75.44 174.861 75.3124C175.091 75.1844 175.208 74.9943 175.208 74.7416C175.208 74.5727 175.146 74.4343 175.023 74.3275C174.898 74.2207 174.697 74.1581 174.416 74.1426L173.041 74.0673H173.035ZM174.546 72.0197C174.721 71.8635 174.807 71.655 174.807 71.3891C174.807 71.1237 174.721 70.8946 174.546 70.7355C174.372 70.5764 174.103 70.496 173.744 70.496C173.385 70.496 173.127 70.5764 172.939 70.7355C172.752 70.8946 172.655 71.1134 172.655 71.3891C172.655 71.6654 172.749 71.8635 172.939 72.0197C173.127 72.1736 173.395 72.2517 173.744 72.2517C174.093 72.2517 174.372 72.1736 174.546 72.0197Z" fill="#42145F"/>
</g>
</g>
<defs>
<clipPath id="clip0_378_1999">
<rect width="166.118" height="56" fill="white" transform="translate(31.9414 20)"/>
</clipPath>
</defs>
</svg>
